# xmcd
# 
# Track frame offsets:
#     150
#     26707
#     52785
#     74180
#     95372
#     117727
#     144337
#     164030
#     188700
#     209402
#     231357
#     253187
#     281582
# 
# Disc length: 4502
# 
# Revision: 14
# Processed by: cddbd v1.5.2PL0 Copyright (c) Steve Scherf et al.
# Submitted via: fre:ac v1.0.17
# 
DISCID=cc11940d
DTITLE=Santana - Supernatural
DYEAR=1999
DGENRE=Rock
TTITLE0=(Da Le) Yaleo 
TTITLE1=Love Of My Life [feat. Dave Matthews]
TTITLE2=Put Your Lights On [feat. Everlast]
TTITLE3=Africa Bamba
TTITLE4=Smooth [feat. Rob Thomas]
TTITLE5=Do You Like The Way [feat. Lauryn Hill and Cee-Lo]
TTITLE6=Maria Maria
TTITLE7=Migra 
TTITLE8=Corazon Espinado [feat. Mana]
TTITLE9=Wishing It Was [feat. Eagle-Eye Cherry]
TTITLE10=El Farol 
TTITLE11=Primavera 
TTITLE12=The Calling [feat. Eric Clapton]
EXTD=YEAR: 1999
EXTT0=
EXTT1=
EXTT2=
EXTT3=
EXTT4=
EXTT5=
EXTT6=
EXTT7=
EXTT8=
EXTT9=
EXTT10=
EXTT11=
EXTT12=
PLAYORDER=
